<?xml version="1.0" standalone="no"?>
<!DOCTYPE svg PUBLIC "-//W3C//DTD SVG 20010904//EN"
 "http://www.w3.org/TR/2001/REC-SVG-20010904/DTD/svg10.dtd">
<svg version="1.0" xmlns="http://www.w3.org/2000/svg"
 width="512.000000pt" height="512.000000pt" viewBox="0 0 512.000000 512.000000"
 preserveAspectRatio="xMidYMid meet">
<metadata>
Created by potrace 1.14, written by Peter Selinger 2001-2017
</metadata>
<g transform="translate(0.000000,512.000000) scale(0.100000,-0.100000)"
fill="#000000" stroke="none">
<path d="M3290 4163 c0 -5 -10 -19 -23 -33 -101 -112 -327 -369 -347 -395 -15
-18 -62 -73 -107 -122 -44 -48 -93 -104 -109 -123 -16 -19 -31 -37 -35 -40 -3
-3 -36 -41 -74 -85 -38 -44 -91 -105 -119 -136 -28 -30 -63 -69 -77 -85 -14
-16 -75 -85 -135 -154 -60 -69 -121 -138 -134 -154 -50 -58 -240 -273 -338
-381 l-54 -59 42 -18 c54 -23 243 -83 253 -80 4 1 7 -2 7 -8 0 -5 7 -10 15
-10 26 0 235 -73 235 -82 0 -11 -112 -172 -122 -176 -5 -2 -8 -10 -8 -17 0 -8
-6 -20 -13 -27 -12 -11 -120 -168 -262 -378 -24 -36 -97 -142 -162 -237 -65
-95 -145 -212 -177 -260 -33 -48 -69 -98 -80 -110 -11 -13 -17 -26 -14 -29 5
-5 158 127 343 295 85 77 207 186 260 231 28 24 52 46 55 49 3 3 41 37 85 76
44 38 82 72 85 75 3 3 39 34 80 69 41 36 80 70 85 75 6 6 48 45 95 86 47 41
87 77 90 80 3 3 41 37 85 75 44 39 96 84 115 101 162 144 207 182 236 204 18
14 32 29 31 35 -2 5 -50 25 -108 43 -57 19 -111 37 -119 41 -8 4 -84 29 -167
56 -84 28 -153 53 -153 57 0 7 83 177 446 913 75 154 137 283 136 288 -1 4 3
7 8 7 6 0 10 5 10 11 0 6 36 83 79 170 44 87 75 161 70 164 -5 4 -9 2 -9 -2z"/>
<path d="M507 3385 c-60 -7 -115 -16 -123 -19 -12 -5 -14 -139 -14 -965 l0
-959 30 -7 c55 -12 361 -20 500 -14 74 4 171 15 215 24 260 55 426 193 481
400 19 69 18 229 -2 296 -42 146 -162 268 -316 324 l-60 22 33 13 c169 68 288
240 289 417 1 220 -143 388 -387 455 -67 18 -111 21 -308 24 -152 2 -267 -2
-338 -11z m507 -200 c128 -27 221 -102 247 -198 38 -143 -16 -282 -138 -354
-82 -48 -155 -63 -330 -70 l-163 -6 2 314 3 314 35 6 c69 12 275 9 344 -6z
m21 -840 c137 -38 228 -104 275 -200 21 -43 25 -64 25 -150 0 -89 -3 -106 -28
-157 -78 -160 -295 -238 -590 -213 l-87 7 0 370 0 371 173 -6 c111 -4 193 -12
232 -22z"/>
<path d="M3220 3121 c0 -16 -25 -383 -55 -816 -30 -432 -55 -804 -55 -826 l0
-39 108 0 108 0 28 453 c15 248 32 579 38 733 l11 282 33 -127 c46 -176 79
-280 265 -840 l164 -492 94 3 95 3 138 380 c76 209 189 531 252 717 l113 336
7 -186 c4 -103 13 -302 21 -442 8 -140 19 -363 25 -495 6 -132 13 -259 16
-282 l5 -43 110 0 109 0 0 43 c0 23 -22 402 -50 842 -27 440 -50 806 -50 813
0 9 -36 12 -147 12 l-148 0 -158 -433 c-185 -508 -222 -613 -280 -817 l-43
-151 -33 123 c-59 223 -100 348 -263 816 l-162 462 -148 0 -148 0 0 -29z"/>
</g>
</svg>
